<svg xmlns="http://www.w3.org/2000/svg" width="1200" height="320" viewBox="0 0 1200 320" role="img" aria-labelledby="title desc" shape-rendering="crispEdges">
  <title id="title">Issue Jumper</title>
  <desc id="desc">A black, white, and gray terminal-style pixel banner for Issue Jumper.</desc>
  <rect width="1200" height="320" fill="#080808"/>
  <rect x="40" y="40" width="1120" height="240" fill="#101010"/>
  <rect x="40" y="40" width="1120" height="16" fill="#1A1A1A"/>
  <rect x="40" y="264" width="1120" height="16" fill="#050505"/>

  <g fill="#D9D9D9">
    <rect x="96" y="94" width="12" height="120"/>
    <rect x="108" y="148" width="30" height="12"/>
    <rect x="138" y="136" width="12" height="12"/>
    <rect x="150" y="124" width="48" height="12"/>
  </g>
  <g fill="#F2F2F2">
    <rect x="84" y="82" width="36" height="36"/>
    <rect x="84" y="136" width="36" height="36"/>
    <rect x="84" y="202" width="36" height="36"/>
    <rect x="186" y="112" width="36" height="36"/>
  </g>
  <g fill="#101010">
    <rect x="96" y="94" width="12" height="12"/>
    <rect x="96" y="148" width="12" height="12"/>
    <rect x="96" y="214" width="12" height="12"/>
    <rect x="198" y="124" width="12" height="12"/>
  </g>

  <text x="280" y="104" fill="#F5F5F5" font-family="ui-monospace, SFMono-Regular, Menlo, Consolas, monospace" font-size="46" font-weight="800">Issue Jumper</text>
  <text x="282" y="142" fill="#BDBDBD" font-family="ui-monospace, SFMono-Regular, Menlo, Consolas, monospace" font-size="18" font-weight="600">offline branch-to-issue navigation for Zed and terminals</text>

  <rect x="282" y="168" width="584" height="72" fill="#050505"/>
  <rect x="282" y="168" width="584" height="8" fill="#2A2A2A"/>
  <text x="306" y="200" fill="#8A8A8A" font-family="ui-monospace, SFMono-Regular, Menlo, Consolas, monospace" font-size="17" font-weight="700">$ issue-jumper url --print-url</text>
  <text x="306" y="226" fill="#F2F2F2" font-family="ui-monospace, SFMono-Regular, Menlo, Consolas, monospace" font-size="17" font-weight="700">git branch  -&gt;  issue #123  -&gt;  browser</text>

  <g font-family="ui-monospace, SFMono-Regular, Menlo, Consolas, monospace" font-size="14" font-weight="800">
    <rect x="902" y="92" width="94" height="32" fill="#F2F2F2"/>
    <text x="925" y="113" fill="#101010">LOCAL</text>
    <rect x="902" y="140" width="94" height="32" fill="#8A8A8A"/>
    <text x="929" y="161" fill="#101010">ZED</text>
    <rect x="902" y="188" width="150" height="32" fill="#D9D9D9"/>
    <text x="927" y="209" fill="#101010">NO TELEMETRY</text>
  </g>
</svg>
